<svg fill="none" height="21" viewBox="0 0 21 21" width="21" xmlns="http://www.w3.org/2000/svg" xmlns:xlink="http://www.w3.org/1999/xlink"><mask id="a" fill="#000" height="21" maskUnits="userSpaceOnUse" width="21" x="0" y="0"><path d="m0 0h21v21h-21z" fill="#fff"/><path clip-rule="evenodd" d="m18.0883 2.94444v15.11116c-.0001.5243-.3977.9444-.8938.9444h-4.4691v-6.6111h1.7876l.8938-2.83334h-2.6814v-.94445c0-.10783-.0021-.2099-.0041-.30632-.0187-.89728-.0272-1.30495 1.7788-1.30495h.8938l.0129-2.16651h-1.7876c-1.9699 0-3.2492 1.17363-3.5752 3.77778v.94445h-1.78758v2.83334h1.78758v6.6111h-7.15021c-.49636 0-.89379-.4201-.89379-.9444v-15.11116c0-.52442.39743-.94444.89379-.94444h14.30071c.4961 0 .8937.42002.8938.94444z" fill="#000" fill-rule="evenodd"/></mask><path d="m18.0883 18.0556 2 .0002v-.0002zm0-15.11116h2v-.00024zm-.8938 16.05556v-2zm-4.4691 0h-2v2h2zm0-6.6111v-2h-2v2zm1.7876 0v2h1.4662l.4411-1.3983zm.8938-2.83334 1.9073.60164.8207-2.60164h-2.728zm-2.6814 0h-2v2.00004h2zm-.0041-1.25077 1.9995-.04156zm2.6726-1.30495v2h1.9881l.0118-1.9881zm.0129-2.16651 1.9999.01191.012-2.01191h-2.0119zm-5.3628 3.77778-1.98451-.24841-.01549.12372v.12469zm0 .94445v2.00004h2v-2.00004zm-1.78758 0v-2h-2v2zm0 2.83334h-2v2h2zm1.78758 0h2v-2h-2zm0 6.6111v2h2v-2zm-7.15021 0v-2zm17.19451-.9444v-15.11116h-4v15.11116zm-2.8938 2.9444c1.7031 0 2.8936-1.4208 2.8938-2.9442l-4-.0005c0-.4747.3952-1.0553 1.1062-1.0553zm-4.4691 0h4.4691v-4h-4.4691zm2-2v-6.6111h-4v6.6111zm-2-4.6111h1.7876v-4h-1.7876zm3.6949-1.3983.8938-2.8334-3.8147-1.20333-.8938 2.83333zm-1.0135-5.43504h-2.6814v4.00004h2.6814zm-.6814 2v-.94445h-4v.94445zm0-.94445c0-.13167-.0026-.25376-.0046-.34788l-3.9991.08311c.002.09873.0037.18078.0037.26477zm-.0046-.34788c-.0025-.12088-.0036-.18722-.0028-.24099.0008-.0519.0032-.0429-.003-.00155-.0067.04443-.0273.15458-.0902.29478-.0671.14975-.1688.30338-.3078.43782-.2694.26061-.5164.29565-.4547.28291.0577-.01194.2395-.03636.6378-.03636v-4c-.5047 0-.9991.02653-1.4471.11907-.4441.09174-1.0264.28478-1.5171.75947-.5274.51019-.7107 1.11144-.7762 1.54563-.0557.36921-.0415.75253-.038.92233zm-.2207.73661h.8938v-4h-.8938zm2.8937-1.9881.0129-2.1665-3.9999-.02381-.0129 2.1665zm-1.987-4.17841h-1.7876v4h1.7876zm-1.7876 0c-1.4043 0-2.774.43285-3.83218 1.51216-1.01872 1.03905-1.5324 2.45838-1.72753 4.01721l3.96901.49683c.1309-1.04533.4198-1.51489.6148-1.71369.1554-.15854.4103-.31251.9759-.31251zm-5.5752 5.77778v.94445h4v-.94445zm2-1.05555h-1.78758v4.00004h1.78758zm-3.78758 2v2.83334h3.99998v-2.83334zm2 4.83334h1.78758v-4h-1.78758zm-.21242-2v6.6111h4v-6.6111zm-5.15021 8.6111h7.15021v-4h-7.15021zm-2.89379-2.9444c0 1.5234 1.19024 2.9444 2.89379 2.9444v-4c.71083 0 1.10621.5808 1.10621 1.0556zm0-15.11116v15.11116h4v-15.11116zm2.89379-2.94444c-1.70346 0-2.89379 1.42085-2.89379 2.94444h4c0 .47475-.39547 1.05556-1.10621 1.05556zm14.30071 0h-14.30071v4h14.30071zm2.8938 2.9442c-.0002-1.52355-1.1908-2.9442-2.8938-2.9442v4c-.7109 0-1.1062-.58061-1.1062-1.05532z" fill="#000" mask="url(#a)"/></svg>