<svg fill="none" height="22" viewBox="0 0 21 22" width="21" xmlns="http://www.w3.org/2000/svg"><path clip-rule="evenodd" d="m2.28488 2.26316c.55251-.5838 1.10661-.94332 1.76009-1.21128.63201-.25956 1.35385-.4368 2.41197-.48804 1.05971-.05208 1.39758-.06384 4.09736-.06384 2.6989 0 3.0376.0126 4.0965.06384 1.0573.0504 1.7792.22848 2.412.48804.6527.26796 1.2068.62748 1.7593 1.21128s.892 1.16928 1.1463 1.85976c.2457.6678.4134 1.43052.4619 2.54856.0485 1.11888.0597 1.47756.0597 4.32852 0 2.851-.0112 3.208-.0597 4.3285-.0477 1.1181-.2162 1.8808-.4619 2.5486-.2543.6905-.5938 1.2759-1.1463 1.8597s-1.1066.9425-1.7601 1.2113c-.632.2596-1.3539.4368-2.412.4881-1.0589.052-1.3968.0638-4.0965.0638-2.69819 0-3.03605-.0126-4.09656-.0638-1.05812-.0513-1.77917-.2285-2.41197-.4881-.65427-.2688-1.20758-.6275-1.76009-1.2113-.55331-.5829-.89277-1.1692-1.14637-1.8597-.245646-.6678-.413387-1.4305-.46188-2.5486-.049289-1.1189-.060419-1.4767-.060419-4.3285s.01113-3.20964.059624-4.32936c.048493-1.11804.216234-1.88076.461885-2.54856.2536-.69132.59385-1.27596 1.14716-1.85892zm4.25394 17.28384c-.96908-.047-1.49536-.2167-1.84515-.3612-.46427-.1907-.79498-.4183-1.14318-.7854-.34741-.3671-.56364-.7165-.74331-1.2071-.13674-.3696-.29812-.9265-.34184-1.9496-.0485-1.1071-.05804-1.4389-.05804-4.2429 0-2.80388.01034-3.13568.05804-4.2428.04452-1.02396.2059-1.5792.34184-1.94964.18046-.49056.3959-.84.74331-1.20792.3474-.36708.67812-.59556 1.14318-.7854.34979-.14448.87687-.315 1.84515-.3612 1.04779-.05124 1.36181-.06132 4.01468-.06132 2.6536 0 2.9676.01092 4.0154.06132.9691.04704 1.4946.21756 1.8452.3612.4643.18984.795.41832 1.1432.7854.3474.36708.5628.71736.7433 1.20792.1367.3696.2981.92652.3418 1.94964.0485 1.10796.058 1.43892.058 4.2428 0 2.8031-.0095 3.1358-.058 4.2429-.0445 1.0239-.2059 1.58-.3418 1.9496-.1805.4906-.3959.84-.7433 1.2071s-.6789.5947-1.1432.7854c-.3498.1445-.8769.315-1.8452.3612-1.0478.0512-1.3618.0613-4.0154.0613-2.65287-.0008-2.96769-.0109-4.01468-.0613zm9.31958-12.89232c-.659 0-1.1925-.56448-1.1925-1.26s.5335-1.25916 1.1925-1.25916 1.1925.56364 1.1925 1.25916-.5343 1.26-1.1925 1.26zm-10.40791 4.34532c0 2.9778 2.28478 5.392 5.10301 5.392 2.8182 0 5.103-2.4142 5.103-5.392s-2.2848-5.39196-5.103-5.39196c-2.81823 0-5.10301 2.41416-5.10301 5.39196zm1.7911 0c0-1.93284 1.48264-3.50028 3.31191-3.50028 1.8292 0 3.3127 1.56744 3.3127 3.50028 0 1.9328-1.4835 3.5003-3.3127 3.5003-1.82927 0-3.31191-1.5675-3.31191-3.5003z" fill="#000" fill-rule="evenodd"/></svg>