<svg width="112" height="171" viewBox="0 0 112 171" fill="none" xmlns="http://www.w3.org/2000/svg">
<path d="M107.888 66.8828C107.888 63.6261 105.249 60.9862 101.994 60.9862H87.113V33.127C87.113 16.1053 73.2681 2.25653 56.2518 2.25653C39.2354 2.25653 25.3908 16.1053 25.3908 33.127V60.9862H10.5101C7.25473 60.9862 4.61536 63.6261 4.61536 66.8828V88.5225C4.61536 91.7786 7.25473 94.4191 10.5101 94.4191C13.7655 94.4191 16.4048 91.7786 16.4048 88.5225V72.7793H96.099V115.707C96.099 137.687 78.2249 155.567 56.2518 155.567C34.9727 155.567 17.4899 138.943 16.4566 117.717C16.2925 114.461 13.4689 112.011 10.2798 112.114C7.02731 112.276 4.52033 115.039 4.67861 118.293C6.02279 145.806 28.6749 167.36 56.2518 167.36C84.7239 167.36 107.888 144.188 107.888 115.707V66.8828ZM37.1802 33.127C37.1802 22.6065 45.7345 14.0496 56.2518 14.0496C66.7691 14.0496 75.3236 22.6065 75.3236 33.127V60.9603H37.1802V33.127Z" fill="#EA494A"/>
<path d="M73.0323 114.161C73.0323 104.905 65.5053 97.3727 56.2519 97.3727C46.9982 97.3727 39.4714 104.905 39.4714 114.161C39.4714 123.418 46.9982 130.947 56.2519 130.947C65.5053 130.947 73.0323 123.418 73.0323 114.161ZM51.2609 114.161C51.2609 111.406 53.5002 109.166 56.2519 109.166C59.0034 109.166 61.2428 111.406 61.2428 114.161C61.2428 116.914 59.0034 119.154 56.2519 119.154C53.5002 119.154 51.2609 116.914 51.2609 114.161Z" fill="#EA494A"/>
</svg>
